<?xml version="1.0" encoding="utf-8"?>
<!-- Generator: Adobe Illustrator 21.0.0, SVG Export Plug-In . SVG Version: 6.00 Build 0)  -->
<svg version="1.1" id="图层_1" xmlns="http://www.w3.org/2000/svg" xmlns:xlink="http://www.w3.org/1999/xlink" x="0px" y="0px"
	 viewBox="0 0 316 333" style="enable-background:new 0 0 316 333;" xml:space="preserve">
<style type="text/css">
	.st0{fill-rule:evenodd;clip-rule:evenodd;fill:none;stroke:black;}
</style>
<path class="st0" d="M294.1,10c1.3,0.7,2.7,1.3,4,2c3.1,17.1,3.2,45-5,59c-44.3,16.1-89.9,31.5-136,48c-17.7,6.4-43,20-62,19
	c0-0.3,0-0.7,0-1c15.3-6.3,30.7-12.7,46-19C188.7,97.4,279.2,60.3,294.1,10z"/>
<path class="st0" d="M259.1,98c1.3,0,2.7,0,4,0c-4,12.6-18.3,20.5-26,30c-25.7,31.8-56.8,61.2-77,98c-12.2,22.2-1.8,62.1-7,93
	c-0.7,0-1.3,0-2,0c-5.8-64-49.8-147.5-89-179c-12.3-9.9-46-27.3-54-37c0-0.3,0-0.7,0-1c66.1-18.4,129.2,86.8,142,135
	c0.3,0,0.7,0,1,0c7.2-51.6,37.7-97.5,73-122C235.7,109.3,247.4,103.7,259.1,98z"/>
</svg>
